<?xml version="1.0" standalone="no"?>
<!DOCTYPE svg PUBLIC "-//W3C//DTD SVG 1.1//EN" "http://www.w3.org/Graphics/SVG/1.1/DTD/svg11.dtd" >
<svg xmlns="http://www.w3.org/2000/svg" xmlns:xlink="http://www.w3.org/1999/xlink" version="1.1">
<metadata>
Created by FontForge 20190801 at Fri Jan 20 18:33:37 2023
 By Unknown
copyright missing
</metadata>
<defs>
<font id="SztosTest-MediumCondensed" horiz-adv-x="341" >
  <font-face 
    font-family="Sztos Test Medium Condensed"
    font-weight="400"
    font-stretch="normal"
    units-per-em="1000"
    panose-1="0 0 0 0 0 0 0 0 0 0"
    ascent="800"
    descent="-200"
    x-height="550"
    cap-height="700"
    bbox="-16 -200 443 800"
    underline-thickness="50"
    underline-position="-125"
    unicode-range="U+0020-007A"
  />
<missing-glyph horiz-adv-x="500" 
d="M410 800v-1000h-317v1000h317zM167 -131h166v33h-102l70 47h32v33h-166v-33h70l-70 -47v-33zM167 5h166v113h-166v-113zM167 178h166v113h-100v-56h34v23h33v-47h-100v80h-33v-113zM167 313h166v100h-33v-66h-133v-34zM167 370h100v70h66v33h-166v-33h66v-37h-66v-33z
M167 500h166v34h-66v70h-100v-104zM167 630h166v33h-66v37h66v33h-165v-33h65v-37h-66v-33zM200 38v47h100v-47h-100zM200 534v36h33v-36h-33z" />
    <glyph glyph-name=".notdef" horiz-adv-x="500" 
d="M410 800v-1000h-317v1000h317zM167 -131h166v33h-102l70 47h32v33h-166v-33h70l-70 -47v-33zM167 5h166v113h-166v-113zM167 178h166v113h-100v-56h34v23h33v-47h-100v80h-33v-113zM167 313h166v100h-33v-66h-133v-34zM167 370h100v70h66v33h-166v-33h66v-37h-66v-33z
M167 500h166v34h-66v70h-100v-104zM167 630h166v33h-66v37h66v33h-165v-33h65v-37h-66v-33zM200 38v47h100v-47h-100zM200 534v36h33v-36h-33z" />
    <glyph glyph-name=".null" horiz-adv-x="0" 
 />
    <glyph glyph-name="nonmarkingreturn" horiz-adv-x="333" 
 />
    <glyph glyph-name="space" unicode=" " horiz-adv-x="200" 
 />
    <glyph glyph-name="space" unicode="&#xa0;" horiz-adv-x="200" 
 />
    <glyph glyph-name="comma" unicode="," horiz-adv-x="158" 
d="M47 -66q32 5 32 46v20h-57v123h114v-127q0 -59 -25.5 -87t-63.5 -28v53z" />
    <glyph glyph-name="hyphen" unicode="-" horiz-adv-x="156" 
d="M12 261v96h132v-96h-132z" />
    <glyph glyph-name="period" unicode="." horiz-adv-x="158" 
d="M22 0v123h114v-123h-114z" />
    <glyph glyph-name="zero" unicode="0" horiz-adv-x="345" 
d="M173 -12q-34 0 -58.5 9.5t-41 32.5t-26.5 49.5t-15 72t-6.5 88.5t-1.5 110t1.5 110t6.5 88.5t15 72t26.5 49.5t41 32.5t58.5 9.5t58.5 -9.5t41 -32.5t26 -49.5t14.5 -72t6.5 -88.5t1.5 -110t-1.5 -110t-6.5 -88.5t-14.5 -72t-26 -49.5t-41 -32.5t-58.5 -9.5zM148 350
q0 -195 1 -212q5 -47 24 -47q18 0 21.5 33.5t2.5 141.5v84v84q1 105 -2.5 140t-21.5 35q-21 0 -24 -61q-1 -9 -1 -198z" />
    <glyph glyph-name="one" unicode="1" horiz-adv-x="323" 
d="M114 0v518q-7 -12 -24.5 -21.5t-32.5 -9.5v101q31 5 59.5 36t40.5 76h78v-700h-121z" />
    <glyph glyph-name="two" unicode="2" horiz-adv-x="315" 
d="M21 0q0 87 15.5 155t37.5 110.5t44.5 80t38 83.5t15.5 100q0 49 -2.5 66t-14.5 17q-31 0 -23 -130l-107 6q-10 224 137 224q65 0 96.5 -41t31.5 -132q0 -60 -15.5 -111.5t-37 -88t-42.5 -72t-35.5 -78.5t-12.5 -91h151v-98h-277z" />
    <glyph glyph-name="three" unicode="3" horiz-adv-x="328" 
d="M165 -12q-77 0 -109.5 59t-34.5 180l113 13q3 -92 8.5 -124t20.5 -32q25 0 25 116q0 59 -15.5 92.5t-42.5 33.5h-10v88h8q48 0 48 103q0 97 -20 97q-12 0 -15.5 -26.5t-1.5 -93.5l-108 8q6 107 34.5 158.5t101.5 51.5q63 0 98 -46.5t35 -134.5q0 -127 -64 -154
q34 -16 55 -63.5t21 -121.5q0 -109 -38 -156.5t-109 -47.5z" />
    <glyph glyph-name="four" unicode="4" horiz-adv-x="327" 
d="M15 138v88l90 474h168v-466h37v-96h-37v-138h-121v138h-137zM93 234h59v323z" />
    <glyph glyph-name="five" unicode="5" horiz-adv-x="348" 
d="M171 -12q-68 0 -105 54t-41 178l113 14q6 -151 33 -151q16 0 19.5 29.5t3.5 111.5v12q0 80 -5.5 114.5t-23.5 34.5q-27 0 -35 -69l-92 11l17 373l242 1v-100l-148 -1l-6 -162q20 36 60 36q53 0 84 -64t31 -176q0 -246 -147 -246z" />
    <glyph glyph-name="six" unicode="6" horiz-adv-x="343" 
d="M177 -12q-88 0 -120.5 75.5t-32.5 269.5q0 209 41.5 294t135.5 85q51 0 88 -33l-17 -110q-18 23 -28 31t-25 8q-36 0 -50 -45t-20 -139q13 27 26 37t33 10q110 2 110 -241q0 -242 -141 -242zM100 205q20 -94 50.5 -130t68.5 -20q34 15 38.5 63t-16.5 144q-19 90 -49 127
t-65 20q-36 -15 -42 -61.5t15 -142.5z" />
    <glyph glyph-name="seven" unicode="7" horiz-adv-x="279" 
d="M53 0q4 134 19.5 236.5t40.5 206.5t34 159h-140v98h253q0 -90 -13.5 -174.5t-29.5 -144t-30 -161t-14 -220.5h-120z" />
    <glyph glyph-name="eight" unicode="8" horiz-adv-x="320" 
d="M160 -12q-67 0 -105.5 53.5t-38.5 153.5q0 70 16.5 115.5t39.5 62.5q-21 16 -35.5 56t-14.5 99q0 89 36 136.5t102 47.5t102 -47.5t36 -136.5q0 -117 -50 -155q23 -17 39.5 -62.5t16.5 -115.5q0 -100 -38.5 -153.5t-105.5 -53.5zM140 203q0 -122 20 -122t20 122
q0 123 -20 123t-20 -123zM143 519q0 -109 17 -109q16 0 16 109q0 31 -3.5 55.5t-7 34.5t-5.5 10q-3 0 -6.5 -10t-7 -34.5t-3.5 -55.5z" />
    <glyph glyph-name="nine" unicode="9" horiz-adv-x="343" 
d="M166 712q87 0 119.5 -75.5t32.5 -269.5q0 -209 -41.5 -294t-135.5 -85q-50 0 -87 33l17 110q18 -23 28 -31t25 -8q36 0 50 45t20 139q-13 -27 -26 -37t-33 -10q-111 -2 -111 241q0 242 142 242zM148 468q0 -148 24 -148q22 0 23 114v32q0 86 -4.5 117.5t-20.5 31.5
q-15 0 -18.5 -29.5t-3.5 -117.5z" />
    <glyph glyph-name="A" unicode="A" 
d="M9 0l70 700h181l72 -700h-122l-9 137h-64l-11 -137h-117zM143 224h52l-24 361z" />
    <glyph glyph-name="B" unicode="B" horiz-adv-x="348" 
d="M38 0v700h124q82 0 123.5 -46t41.5 -130q0 -121 -87 -155q38 -15 64.5 -59t26.5 -114q0 -91 -43 -143.5t-129 -52.5h-121zM158 94q52 14 52 109t-52 109v-218zM158 412q46 14 46 97t-46 97v-194z" />
    <glyph glyph-name="C" unicode="C" horiz-adv-x="335" 
d="M174 -12q-92 0 -121 80t-29 282t28.5 282t120.5 80q35 0 60.5 -14.5t40 -37t23 -61t11.5 -76t4 -93.5l-114 -9q-1 27 -1 64v54.5t-2 36.5t-7.5 26t-14.5 7q-8 0 -13.5 -4.5t-8.5 -16.5t-4 -25t-1 -37.5t0.5 -47t1 -59.5t0.5 -69t-0.5 -69t-1 -59.5t-0.5 -47t1 -37.5
t4 -25t8.5 -16.5t13.5 -4.5q5 0 9 2.5t6.5 8.5t4.5 13t3.5 18.5t2 22.5t1 27.5t0.5 31t0.5 36t0.5 38.5l115 -14q-2 -70 -7.5 -115.5t-20 -88t-43 -63t-71.5 -20.5z" />
    <glyph glyph-name="D" unicode="D" horiz-adv-x="355" 
d="M38 0v700h126q98 0 132.5 -78.5t34.5 -271.5t-34.5 -271.5t-132.5 -78.5h-126zM158 98q29 0 39.5 51.5t10.5 200.5t-10.5 200.5t-39.5 51.5v-504z" />
    <glyph glyph-name="E" unicode="E" horiz-adv-x="269" 
d="M38 0v700h214v-98h-94v-186h81v-94h-81v-224h100v-98h-220z" />
    <glyph glyph-name="F" unicode="F" horiz-adv-x="266" 
d="M38 0v700h206v-98h-86v-203h94v-98h-94v-301h-120z" />
    <glyph glyph-name="G" unicode="G" horiz-adv-x="344" 
d="M149 -14q-70 0 -97.5 84.5t-27.5 279.5q0 201 30 282.5t121 81.5q70 0 103.5 -53.5t37.5 -174.5l-114 -7q0 71 -5 101t-22 30q-22 0 -27 -37.5t-4 -137.5q1 -54 1 -85q0 -33 -1 -89q-1 -132 9 -156q6 -15 19 -15q21 0 29 52.5t6 171.5h-35v86h140v-400h-64l-11 101
q-4 -115 -88 -115z" />
    <glyph glyph-name="H" unicode="H" horiz-adv-x="374" 
d="M216 0v329h-58v-329h-120v700h120v-273h58v273h121v-700h-121z" />
    <glyph glyph-name="I" unicode="I" horiz-adv-x="196" 
d="M38 0v700h120v-700h-120z" />
    <glyph glyph-name="J" unicode="J" horiz-adv-x="323" 
d="M155 -12q-46 0 -76 24.5t-48.5 88.5t-19.5 173l117 8q0 -191 22 -191q6 0 9 6.5t5 25t3 50.5t1 85v442h121v-444q0 -148 -33 -208t-101 -60z" />
    <glyph glyph-name="K" unicode="K" horiz-adv-x="314" 
d="M158 174v-174h-120v700h120v-296h3l35 296h113l-54 -273l55 -427h-111l-27 229z" />
    <glyph glyph-name="L" unicode="L" horiz-adv-x="237" 
d="M38 0v700h120v-602h74v-98h-194z" />
    <glyph glyph-name="M" unicode="M" horiz-adv-x="466" 
d="M38 0v700h171l24 -571l29 571h167v-700h-114v587l-33 -587h-100l-31 587v-587h-113z" />
    <glyph glyph-name="N" unicode="N" horiz-adv-x="370" 
d="M38 0v700h139l42 -480v480h113v-700h-139l-42 480v-480h-113z" />
    <glyph glyph-name="O" unicode="O" 
d="M171 -12q-90 0 -118.5 80.5t-28.5 281.5t28.5 281.5t118.5 80.5t118 -80.5t28 -281.5t-28 -281.5t-118 -80.5zM148 350q0 -32 -0.5 -69t-1 -59.5t-1 -47t1 -37.5t4 -25t7.5 -16.5t13 -4.5t13 4.5t7.5 16.5t3.5 25.5t1 37.5t-1 46.5t-1.5 59t-0.5 69.5t0.5 69.5t1.5 59
t1 46.5t-1 37.5t-3.5 25.5t-7.5 16.5t-13 4.5t-13 -4.5t-7.5 -16.5t-4 -25t-1 -37.5t1 -47t1 -59.5t0.5 -69z" />
    <glyph glyph-name="P" unicode="P" horiz-adv-x="338" 
d="M38 0v700h104q185 0 185 -201q0 -95 -45.5 -148.5t-139.5 -53.5h16v-297h-120zM158 395q48 14 48 104t-48 104v-208z" />
    <glyph glyph-name="Q" unicode="Q" 
d="M212 -100l-25 89q-5 -1 -16 -1q-90 0 -118.5 80.5t-28.5 281.5t28.5 281.5t118.5 80.5t118 -80.5t28 -281.5q0 -128 -9.5 -201.5t-35.5 -112.5l38 -136h-98zM148 350q0 -32 -0.5 -69t-1 -59.5t-1 -47t1 -37.5t4 -25t7.5 -16.5t13 -4.5t13 4.5t7.5 16.5t3.5 25.5t1 37.5
t-1 46.5t-1.5 59t-0.5 69.5t0.5 69.5t1.5 59t1 46.5t-1 37.5t-3.5 25.5t-7.5 16.5t-13 4.5t-13 -4.5t-7.5 -16.5t-4 -25t-1 -37.5t1 -47t1 -59.5t0.5 -69z" />
    <glyph glyph-name="R" unicode="R" 
d="M38 0v700h101q94 0 139.5 -51.5t45.5 -144.5q0 -114 -69 -164l70 -340h-117l-50 303q-3 -1 -9.5 -1t-9.5 -1h19v-301h-120zM158 396q44 16 44 103t-44 103v-206z" />
    <glyph glyph-name="S" unicode="S" horiz-adv-x="309" 
d="M154 -13q-146 0 -140 229l112 11q-3 -143 29 -143q12 0 14.5 14t2.5 51v7q0 41 -15.5 78t-37 67.5t-43.5 62.5t-37.5 77.5t-15.5 98.5q0 87 36 130t98 43q72 0 102.5 -50t26.5 -160l-106 -7q3 119 -21 119q-18 0 -18 -69q0 -37 15.5 -71.5t38 -64t44.5 -62t37.5 -79.5
t15.5 -102q0 -86 -36 -133t-102 -47z" />
    <glyph glyph-name="T" unicode="T" horiz-adv-x="238" 
d="M58 0v602h-55v98h232v-98h-56v-602h-121z" />
    <glyph glyph-name="U" unicode="U" horiz-adv-x="354" 
d="M177 -12q-73 0 -108 49.5t-35 152.5v510h121v-511q0 -98 22 -98q23 0 23 98v511h120v-510q0 -202 -143 -202z" />
    <glyph glyph-name="V" unicode="V" horiz-adv-x="312" 
d="M72 0l-69 700h124l30 -586l34 586h118l-69 -700h-168z" />
    <glyph glyph-name="W" unicode="W" horiz-adv-x="421" 
d="M41 0l-36 700h118l13 -574l25 574h104l25 -574l12 574h115l-36 -700h-149l-20 568l-22 -568h-149z" />
    <glyph glyph-name="X" unicode="X" horiz-adv-x="278" 
d="M2 0l57 364l-63 336h114l34 -248l30 248h109l-66 -341l65 -359h-114l-32 249l-26 -249h-108z" />
    <glyph glyph-name="Y" unicode="Y" horiz-adv-x="293" 
d="M86 0v179l-93 521h121l35 -389l34 389h116l-93 -521v-179h-120z" />
    <glyph glyph-name="Z" unicode="Z" horiz-adv-x="260" 
d="M1 89l140 513h-129v98h239v-89l-140 -513h141v-98h-251v89z" />
    <glyph glyph-name="a" unicode="a" horiz-adv-x="315" 
d="M259 -13q-65 0 -77 65l-1 5q-16 -69 -69 -69q-43 0 -70 42t-27 121q0 92 42 140t105 50h1v30q0 48 -8 69t-35 21q-35 0 -65 -39l-33 96q51 44 124 44q65 1 97.5 -45t32.5 -132v-281q0 -18 11 -18q7 0 17 9l8 -95q-26 -13 -53 -13zM120 162q0 -83 27 -83q16 0 16 88v100
q-43 -14 -43 -105z" />
    <glyph glyph-name="b" unicode="b" horiz-adv-x="334" 
d="M216 -12q-49 0 -69 65v-53h-110v720h116v-218q15 60 63 60q54 0 74.5 -68t20.5 -218t-21 -219t-74 -69zM153 275v-20q0 -109 3 -140t16 -31q15 0 18.5 26.5t2.5 108.5v56q0 149 -3 166q-4 26 -18 26t-16.5 -33t-2.5 -159z" />
    <glyph glyph-name="c" unicode="c" horiz-adv-x="312" 
d="M160 -12q-43 0 -71.5 19.5t-43 60t-19.5 88.5t-5 119t5 119t19.5 88.5t43 60t71.5 19.5q70 0 98.5 -56t33.5 -166l-114 -7q0 72 -3 101.5t-15 29.5q-16 0 -19.5 -27.5t-2.5 -95.5q1 -42 1 -66t-1 -66q-1 -99 9 -115q4 -8 13 -8q12 0 15.5 27t6.5 104l113 -12
q-12 -217 -135 -217z" />
    <glyph glyph-name="d" unicode="d" horiz-adv-x="334" 
d="M118 -12q-54 0 -74.5 68.5t-20.5 219.5t20 218.5t74 67.5q49 0 64 -60v218h115v-720h-110v53q-20 -65 -68 -65zM141 275q0 -148 2 -161q4 -30 19 -30q13 0 16 31t3 140v20q0 126 -2.5 159t-16.5 33q-22 0 -21 -130v-62z" />
    <glyph glyph-name="e" unicode="e" horiz-adv-x="316" 
d="M162 -12q-42 0 -70.5 19.5t-43.5 59.5t-21 89t-6 119q0 72 5 119.5t20 88t43.5 60t73.5 19.5q30 0 52 -8.5t36.5 -28t23 -42t12.5 -61.5t5.5 -74.5t1.5 -91.5h-159q1 -132 9 -155q6 -16 18 -16q23 0 25 104l112 -10q-17 -191 -137 -191zM135 323h49q1 82 -3.5 117.5
t-19.5 35.5q-18 0 -22 -31.5t-4 -111.5v-10z" />
    <glyph glyph-name="f" unicode="f" horiz-adv-x="237" 
d="M48 586q0 78 30.5 112.5t89.5 34.5q36 0 68 -13l-10 -93q-15 13 -33 13q-33 0 -33 -58v-49h66v-92h-63v-441h-115v441h-38v92h38v53z" />
    <glyph glyph-name="g" unicode="g" horiz-adv-x="331" 
d="M117 41q-54 0 -75 61.5t-21 183.5q0 142 20.5 209t74.5 67q50 0 68 -64v52h110v-472q0 -250 -144 -250q-92 0 -114 81l43 76q10 -30 21 -42.5t31 -12.5q48 0 48 143v29q-8 -30 -25.5 -45.5t-36.5 -15.5zM139 289v-43q-1 -25 -0.5 -45t2 -34t6.5 -21.5t13 -7.5
q14 0 16.5 28t2.5 123q0 146 -7 165q-4 11 -12 11q-22 0 -21 -122v-54z" />
    <glyph glyph-name="h" unicode="h" horiz-adv-x="340" 
d="M37 0v720h116v-213q23 56 71 56q47 0 63 -42t16 -146v-375h-116v353q0 106 -16 106q-18 0 -18 -106v-353h-116z" />
    <glyph glyph-name="i" unicode="i" horiz-adv-x="190" 
d="M37 0v550h116v-550h-116zM35 620v120h118v-120h-118z" />
    <glyph glyph-name="j" unicode="j" horiz-adv-x="193" 
d="M57 -175q-41 0 -73 14l8 90q13 -10 24 -10q24 0 24 47v584h116v-587q0 -138 -99 -138zM40 620v120h118v-120h-118z" />
    <glyph glyph-name="k" unicode="k" horiz-adv-x="312" 
d="M153 144v-144h-116v720h116v-387l49 217h105l-61 -201l64 -349h-107l-32 203z" />
    <glyph glyph-name="l" unicode="l" horiz-adv-x="190" 
d="M37 0v720h116v-720h-116z" />
    <glyph glyph-name="m" unicode="m" horiz-adv-x="481" 
d="M328 353q0 105 -14 105q-16 0 -16 -105v-353h-115v353q0 105 -14 105q-16 0 -16 -105v-353h-116v550h110v-52q13 35 30.5 49.5t44.5 14.5q30 0 45 -17.5t22 -56.5q13 42 32 58t47 16q46 0 60.5 -41.5t14.5 -147.5v-373h-115v353z" />
    <glyph glyph-name="n" unicode="n" horiz-adv-x="340" 
d="M37 0v550h110v-52q25 65 77 65q47 0 63 -42t16 -146v-375h-116v353q0 106 -16 106q-18 0 -18 -106v-353h-116z" />
    <glyph glyph-name="o" unicode="o" horiz-adv-x="319" 
d="M159 -12q-82 0 -110 70.5t-28 216.5t28 216.5t110 70.5q43 0 71.5 -19.5t43 -60t19.5 -88.5t5 -119t-5 -119t-19.5 -88.5t-43 -60t-71.5 -19.5zM139 275q0 -26 -1 -70q-1 -97 8 -112q5 -7 13 -7q22 0 21 125v64q0 148 -1 156q-3 33 -20 33q-15 0 -18.5 -24.5t-2.5 -91.5
q1 -45 1 -73z" />
    <glyph glyph-name="p" unicode="p" horiz-adv-x="331" 
d="M216 -12q-48 0 -63 61v-209h-116v710h110v-52q20 64 69 64q53 0 74 -68.5t21 -218.5q0 -151 -20.5 -219t-74.5 -68zM153 275q0 -126 2.5 -158.5t16.5 -32.5q15 0 18.5 26.5t2.5 108.5v56q0 149 -3 166q-4 26 -18 26t-16.5 -33.5t-2.5 -158.5z" />
    <glyph glyph-name="q" unicode="q" horiz-adv-x="331" 
d="M115 -12q-54 0 -74 67.5t-20 219.5q0 151 20.5 219t74.5 68q48 0 68 -64v52h110v-710h-115v209q-15 -61 -64 -61zM139 275q0 -148 2 -161q4 -30 19 -30q14 0 16.5 32.5t2.5 158.5q0 125 -2.5 158.5t-16.5 33.5q-22 0 -21 -130v-62z" />
    <glyph glyph-name="r" unicode="r" horiz-adv-x="230" 
d="M37 0v550h110v-65q14 77 49 77q16 0 30 -12l-6 -132q-13 18 -32 18q-20 0 -27.5 -31t-7.5 -118v-287h-116z" />
    <glyph glyph-name="s" unicode="s" horiz-adv-x="286" 
d="M151 -12q-71 0 -104.5 43t-38.5 134l105 11q0 -34 6 -57t13.5 -32t16.5 -9q17 0 17 52q0 28 -15.5 52t-37 45t-43.5 45t-37.5 62.5t-15.5 87.5q0 64 34 102t95 38q65 0 93.5 -42.5t30.5 -132.5l-100 -6q0 91 -24 91q-6 0 -11.5 -14.5t-5.5 -34.5q0 -30 15.5 -55
t37.5 -45.5t44 -43.5t37.5 -59.5t15.5 -83.5q0 -72 -34.5 -110t-93.5 -38z" />
    <glyph glyph-name="t" unicode="t" horiz-adv-x="240" 
d="M162 -12q-114 0 -114 139v331h-38v92h38v96l115 51v-147h69v-92h-69v-325q0 -47 35 -47q20 0 33 13l9 -92q-36 -19 -78 -19z" />
    <glyph glyph-name="u" unicode="u" horiz-adv-x="329" 
d="M111 -14q-47 0 -61.5 41.5t-14.5 147.5l-1 375h115v-352q0 -107 13 -107q15 0 15 107v352h115v-550h-110v53q-15 -38 -30.5 -52.5t-40.5 -14.5z" />
    <glyph glyph-name="v" unicode="v" horiz-adv-x="285" 
d="M57 0l-47 550h118l16 -464l17 464h114l-51 -550h-167z" />
    <glyph glyph-name="w" unicode="w" horiz-adv-x="441" 
d="M56 0l-37 550h113l13 -461l21 461h114l20 -461l14 461h108l-38 -550h-142l-19 459l-19 -459h-148z" />
    <glyph glyph-name="x" unicode="x" horiz-adv-x="280" 
d="M11 0l49 280l-53 270h113l22 -198l21 198h104l-51 -270l56 -280h-113l-23 199l-20 -199h-105z" />
    <glyph glyph-name="y" unicode="y" horiz-adv-x="281" 
d="M86 -175q-31 0 -61 15l8 86q16 -8 25 -8q24 0 28 30l1 84l-82 518h117l24 -373l18 373h115l-87 -605q-16 -120 -106 -120z" />
    <glyph glyph-name="z" unicode="z" horiz-adv-x="241" 
d="M7 85l113 373h-110v92h222v-85l-114 -373h119v-92h-230v85z" />
    </font>
</defs>
</svg>
